<?xml version="1.0" encoding="utf-8"?>
<!-- Generator: Adobe Illustrator 24.1.0, SVG Export Plug-In . SVG Version: 6.00 Build 0)  -->
<svg version="1.1" xmlns="http://www.w3.org/2000/svg" xmlns:xlink="http://www.w3.org/1999/xlink" x="0px" y="0px"
	 viewBox="0 0 260.6 241.3" style="enable-background:new 0 0 260.6 241.3;" xml:space="preserve">
<style type="text/css">
	.st0{fill:#55BFF1;}
	.st1{font-family:'Avenir-Roman';}
	.st2{font-size:33.8211px;}
	.st3{fill:#6087A0;}
	.st4{font-size:24px;}
	.st5{fill:#2C6885;}
</style>
<g id="Layer_1">
	<text transform="matrix(1 0 0 1 22.2243 205.7578)" class="st0 st1 st2">Jazzy &amp; Bright</text>
	<text transform="matrix(1 0 0 1 35.362 231.7417)" class="st3 st1 st4">Cleaning Services</text>
</g>
<g id="Layer_2">
	<g>
		<path class="st0" d="M1.1,161.6c0,0-5.3-16.1,7.3-28.2c10-9.7,26.4-6.8,26.4-6.8S0.1,88.3,36.1,55.4c18.2-16.6,47.9-5.3,47.9-5.3
			s0.8-14.2,10-27c5.6-7.7,18-21.2,45.8-22.9c24.6-1.5,45.5,3.9,60.1,30c5.4,9.6,6.2,32.9,5.2,40.9c0,0,30.4,3.3,45,23.9
			c9.8,13.8,11,26.3,10.1,35.5c-0.7,7.3-9.7,27-17.8,27c-2.7,0,23.9-36.9-3-63.2c-12.9-12.7-27-18.4-38.5-19.9
			c-0.8-0.1,1.1-15-2.5-28C188.2,8.8,152.8,7.8,142.9,8.2s-23.8,4.6-31.4,8.7C88.2,29.4,88.6,52,88.6,56.7c0,0.6-22.3-9.6-40.9,4.1
			c-22.2,16.4-16.9,37.8-14.2,48s9.7,22.8,9.3,22.6c-5.2,0.2-21.9-0.2-30.9,8.8C3.7,148.3,1.1,161.6,1.1,161.6z"/>
		<circle class="st0" cx="9.3" cy="113.7" r="6"/>
		<circle class="st0" cx="222.7" cy="56.9" r="7.9"/>
		<path class="st0" d="M64.4,26.1c0,0,3.9-0.2,6.7-2.4c4.1-3.4,3.6-11.1,3.6-11.1s0.4,5.6,4,9.3c3,3.1,7.1,4.2,7.1,4.2
			s-4.9,1.2-7.6,4.7c-2.7,3.5-2.1,8.5-2.1,8.5s-0.2-5.6-3.7-9.2C69.2,26.9,64.4,26.1,64.4,26.1z"/>
		<path class="st0" d="M215,113.2c1.5-0.7,6.8-1.9,7.9-4.4c1.3-3,0.2-3.9,2.4-8.8c2.3,3.8,1.8,7.6,3.5,9.8c1.8,2.3,5,2.6,6.8,3.6
			c-1.3,0.4-4.1,1.4-6.5,3.9c-3.7,3.9-3.8,8.6-3.9,9.8c0-1.1,0-5.5-3.3-9.3C219.4,114.7,216.2,113.5,215,113.2z"/>
		<path class="st5" d="M190.2,98.2c-0.8-2.1-2.5-5.5-0.4-8.8c2-3.1,6.4-3.5,6.9-6.4c0.4-2.2-4.8-9.8-4.8-9.8l-30.3-0.7l-0.4,7.7
			c0,0,4.5,0.1,6.8,0.1c-0.9,2.1-0.2,3.4-1.7,6.9c-1.6,3.9-2.8,4.4-4.2,6.5l2,2.2c0,0,3.4-0.9,5.6-5.5c3-6.4,1.9-7.8,2.3-7.8
			c1.9,0.1,6.1,7.1,4,14.2c-4.2,14-8.5,16.4-12.3,31.2c-1.2,4.7-7.5,23.7,3.7,28.6c7.9,3.5,21.4,4.7,29.3,0.7
			c1.3-0.6,3.3-2.3,4.6-8.3C203.3,141.1,203.8,134,190.2,98.2z M199.6,144.1c-0.1,2.1-0.7,3.8-0.8,4.1c-0.2,0.6-1.3,4-3.7,6.1
			c-1.7,1.5-4.2,2.3-9.8,2.1c-10.1-0.3-15.1-0.5-18.3-4.1c-4.8-5.4-2.5-15-0.4-23.8c1.1-4.5,2.6-8.4,2.6-8.4c0.7-1.8,2-4.8,3.5-7.8
			c0.6-1.2,1.6-3.1,2.8-5.9c0.3-0.6,0.5-1.1,0.9-2.1c1.2-2.9,2.1-5.9,2.1-5.9l0,0l8.7,0.2c0,0,0.2,0.4,0.2,0.5
			C188.5,103.2,200.4,132.6,199.6,144.1z"/>
		<path class="st0" d="M197.4,129.7c-10.3-0.1-20.6-0.3-30.9-0.4c-2.1,8.6-4.1,17.8,0.5,23.1c3.2,3.6,8.2,3.7,18.3,4.1
			c5.6,0.2,8.1-0.6,9.8-2.1c2.4-2.1,3.5-5.5,3.7-6.1c0.1-0.2,0.6-2,0.8-4.1C199.9,140.6,198.9,135.4,197.4,129.7z"/>
		<path class="st0" d="M59.2,129.4l2.6,16.6c0.8,4.8,4.9,8.4,9.8,8.4c0.3,0,0.6,0,0.9,0l41.4-3.5c3.6-0.3,6.4-3.3,6.5-6.9l0.4-17.5
			L59.2,129.4z"/>
		<path class="st5" d="M118.9,97.5l-0.4,0l-0.4-8.8c-0.2-4.7-4.2-8.4-8.9-8.1l-4.7,0.2l-0.1-1.7L69,81l0.1,1.8l-3.5,0.2
			c-4.5,0.2-8.1,4-8.1,8.5v9.8l-1.4,0.1c-3.3,0.2-5.8,3.2-5.3,6.5l6.2,38.8c1.2,7.3,7.8,12.5,15.2,11.9l41.4-3.5
			c5.8-0.5,10.3-5.3,10.4-11.1l0.9-40.7C125,100,122.2,97.3,118.9,97.5z M60.5,91.4c0-3,2.4-5.5,5.4-5.7l3.5-0.2l0.1,2l35.2-1.9
			l-0.1-1.9l4.7-0.3c1.5-0.1,3,0.4,4.1,1.5c1.1,1,1.8,2.4,1.9,3.9l0.4,8.9l-20.2,1.2c-0.1-0.1-0.1-0.3-0.2-0.4
			c-0.9-2.1-2.3-3.4-4.6-3.3l-17.9,0.3c-3.5,0.1-6.5,2.2-7.7,5.3l-4.7,0.3V91.4z M119.8,143.9c-0.1,3.6-2.9,6.6-6.5,6.9l-41.4,3.5
			c-0.3,0-0.6,0-0.9,0c-4.9,0-9-3.5-9.8-8.4l-6.2-38.8c-0.1-0.5,0.1-0.9,0.3-1.1c0.1-0.2,0.5-0.5,1-0.5c0,0,3.2-0.2,8.1-0.5l0.8,33
			c0,0.9,0.4,1.7,1.1,2.2c0.9,0.7,3.1,0.4,3.5-1c0.9-3.3-1.4-13.6,2-13.6c3.3,0-0.8,20.2,4.7,19.5c5-0.6-0.7-20,3-20.1
			c3.8-0.1-0.2,20.8,5.3,20.1c4.9-0.6-0.8-19.3,3-19.7c3.5-0.1,1,16.1,5.2,15.9c6-0.2-1.6-22.4,1.4-24.2c1.4-1.2,6,4.9,6,4.9
			c1.2,1,3.1,1.1,3.8,0.4c0.4-0.4,1.3-1.7,0.4-3.6c-0.5-1.1-4.5-6.3-6.4-9.3c-1.4-2.3-1.8-4.5-2.1-6.6c12.4-0.7,22.9-1.4,22.9-1.4
			c0.6,0,0.9,0.3,1.1,0.4c0.2,0.2,0.4,0.5,0.4,1L119.8,143.9z"/>
		<g>
			<path class="st5" d="M140.8,155l1.6-77.9h-6.9l2.1,77.9c-30.2,0.1-60.5,3.1-90.1,9l0.8,4.2c29.6-5.9,59.8-8.9,90-8.9
				c0.2,0,0.4,0,0.5,0c30.2,0,60.6,3.1,90.2,9.1l0.8-4.2C200.7,158.2,170.7,155.2,140.8,155z"/>
			<rect x="132.5" y="67" class="st5" width="13.1" height="7.5"/>
			<path class="st5" d="M180.3,56.4L180.3,56.4l-82.6,0v0c0,4.5,3.7,8.2,8.2,8.2H172C176.6,64.6,180.3,61,180.3,56.4z"/>
			<rect x="128.1" y="35.7" class="st5" width="5.5" height="17.4"/>
			<rect x="120.1" y="35.7" class="st5" width="5.5" height="17.4"/>
			<rect x="111.9" y="35.7" class="st5" width="5.5" height="17.4"/>
			<rect x="103.3" y="35.7" class="st5" width="5.5" height="17.4"/>
			<path class="st5" d="M100.4,53.1V35.7c-2.3,0-4.4,1.9-4.2,4.2c0.3,3.3,2.1,13.2,2.1,13.2H100.4z"/>
			<rect x="144.9" y="35.7" class="st5" width="5.5" height="17.4"/>
			<rect x="136.5" y="35.7" class="st5" width="5.5" height="17.4"/>
			<rect x="152.9" y="35.7" class="st5" width="5.5" height="17.4"/>
			<rect x="161.1" y="35.7" class="st5" width="5.5" height="17.4"/>
			<rect x="169.8" y="35.7" class="st5" width="5.5" height="17.4"/>
			<path class="st5" d="M182.3,39.9c0.2-2.3-1.9-4.2-4.2-4.2v17.4h2.1C180.2,53.1,182.1,43.2,182.3,39.9z"/>
		</g>
	</g>
</g>
</svg>
